<svg width="43" height="43" viewBox="0 0 43 43" fill="none" xmlns="http://www.w3.org/2000/svg">
<g clip-path="url(#clip0_176_6)">
<mask id="mask0_176_6" style="mask-type:luminance" maskUnits="userSpaceOnUse" x="0" y="0" width="44" height="44">
<path d="M0 0H43.0062V43.0062H0V0Z" fill="white"/>
</mask>
<g mask="url(#mask0_176_6)">
<path d="M21.5045 32.2546C24.356 32.2546 27.0907 31.1218 29.107 29.1055C31.1233 27.0892 32.256 24.3545 32.256 21.503C32.256 18.6515 31.1233 15.9168 29.107 13.9005C27.0907 11.8842 24.356 10.7515 21.5045 10.7515C18.653 10.7515 15.9183 11.8842 13.902 13.9005C11.8857 15.9168 10.7529 18.6515 10.7529 21.503C10.7529 24.3545 11.8857 27.0892 13.902 29.1055C15.9183 31.1218 18.653 32.2546 21.5045 32.2546Z" stroke="#B3B3B3" stroke-width="2.68789" stroke-miterlimit="10"/>
<path d="M5.37682 21.5029H1.79297M41.2153 21.5029H37.6315M21.5041 37.6303V41.2141M21.5041 1.79175V5.3756M10.1003 32.9067L7.56655 35.4405M35.4417 7.56533L32.908 10.0991M10.1003 10.0991L7.56655 7.56533M35.4417 35.4405L32.908 32.9067M32.2557 21.5029C32.2557 24.3544 31.123 27.0891 29.1066 29.1054C27.0903 31.1217 24.3556 32.2545 21.5041 32.2545C18.6527 32.2545 15.918 31.1217 13.9017 29.1054C11.8853 27.0891 10.7526 24.3544 10.7526 21.5029C10.7526 18.6514 11.8853 15.9167 13.9017 13.9004C15.918 11.8841 18.6527 10.7514 21.5041 10.7514C24.3556 10.7514 27.0903 11.8841 29.1066 13.9004C31.123 15.9167 32.2557 18.6514 32.2557 21.5029Z" stroke="#B3B3B3" stroke-width="2.68789" stroke-miterlimit="10" stroke-linecap="round"/>
</g>
</g>
<defs>
<clipPath id="clip0_176_6">
<rect width="43.0062" height="43.0062" fill="white"/>
</clipPath>
</defs>
</svg>
