<svg width="47" height="46" viewBox="0 0 47 46" fill="none" xmlns="http://www.w3.org/2000/svg">
<path d="M32.7643 31.2325H12.6635C12.3894 31.2325 12.1153 31.0498 11.9326 30.867C11.7499 30.6843 11.7499 30.3188 11.8412 30.0447L13.5772 25.6591L11.8412 9.30439H6.26782V7.47705H12.6635C13.1204 7.47705 13.4858 7.84252 13.5772 8.29936L15.4045 25.6591C15.4045 25.8419 15.4045 25.9332 15.3132 26.116L14.034 29.4052H33.678L32.7643 31.2325Z" fill="white"/>
<path d="M14.6739 26.6643L14.3084 24.8369L35.5056 20.4513V12.9592H13.5775V11.1318H36.4193C36.9675 11.1318 37.333 11.4973 37.333 12.0455V21.1822C37.333 21.6391 37.0589 22.0045 36.602 22.0959L14.6739 26.6643ZM33.6783 36.7146C31.6682 36.7146 30.0236 35.07 30.0236 33.06C30.0236 31.0499 31.6682 29.4053 33.6783 29.4053C35.6884 29.4053 37.333 31.0499 37.333 33.06C37.333 35.07 35.6884 36.7146 33.6783 36.7146ZM33.6783 31.2326C32.6732 31.2326 31.8509 32.0549 31.8509 33.06C31.8509 34.065 32.6732 34.8873 33.6783 34.8873C34.6833 34.8873 35.5056 34.065 35.5056 33.06C35.5056 32.0549 34.6833 31.2326 33.6783 31.2326ZM11.7501 36.7146C9.74007 36.7146 8.09546 35.07 8.09546 33.06C8.09546 31.0499 9.74007 29.4053 11.7501 29.4053C13.7602 29.4053 15.4048 31.0499 15.4048 33.06C15.4048 35.07 13.7602 36.7146 11.7501 36.7146ZM11.7501 31.2326C10.7451 31.2326 9.9228 32.0549 9.9228 33.06C9.9228 34.065 10.7451 34.8873 11.7501 34.8873C12.7552 34.8873 13.5775 34.065 13.5775 33.06C13.5775 32.0549 12.7552 31.2326 11.7501 31.2326Z" fill="white"/>
</svg>
