<svg width="40" height="40" viewBox="0 0 40 40" fill="none" xmlns="http://www.w3.org/2000/svg">
<path d="M30.4999 9.51655C30.3457 9.36205 30.1625 9.23947 29.9609 9.15583C29.7593 9.07219 29.5432 9.02914 29.3249 9.02914C29.1066 9.02914 28.8905 9.07219 28.6888 9.15583C28.4872 9.23947 28.3041 9.36205 28.1499 9.51655L20 19L11.8499 9.49988C11.6956 9.34558 11.5124 9.22318 11.3108 9.13967C11.1092 9.05616 10.8931 9.01318 10.6749 9.01318C10.4567 9.01318 10.2406 9.05616 10.039 9.13967C9.83737 9.22318 9.65419 9.34558 9.49988 9.49988C9.34558 9.65419 9.22318 9.83737 9.13967 10.039C9.05616 10.2406 9.01318 10.4567 9.01318 10.6749C9.01318 10.8931 9.05616 11.1092 9.13967 11.3108C9.22318 11.5124 9.34558 11.6956 9.49988 11.8499L19 20L9.49988 28.1499C9.34558 28.3042 9.22318 28.4874 9.13967 28.689C9.05616 28.8906 9.01318 29.1067 9.01318 29.3249C9.01318 29.5431 9.05616 29.7592 9.13967 29.9608C9.22318 30.1624 9.34558 30.3456 9.49988 30.4999C9.65419 30.6542 9.83737 30.7766 10.039 30.8601C10.2406 30.9436 10.4567 30.9866 10.6749 30.9866C10.8931 30.9866 11.1092 30.9436 11.3108 30.8601C11.5124 30.7766 11.6956 30.6542 11.8499 30.4999L20 21L28.1499 30.4999C28.3042 30.6542 28.4874 30.7766 28.689 30.8601C28.8906 30.9436 29.1067 30.9866 29.3249 30.9866C29.5431 30.9866 29.7592 30.9436 29.9608 30.8601C30.1624 30.7766 30.3456 30.6542 30.4999 30.4999C30.6542 30.3456 30.7766 30.1624 30.8601 29.9608C30.9436 29.7592 30.9866 29.5431 30.9866 29.3249C30.9866 29.1067 30.9436 28.8906 30.8601 28.689C30.7766 28.4874 30.6542 28.3042 30.4999 28.1499L21 20L30.4999 11.8499C31.1332 11.2166 31.1332 10.1499 30.4999 9.51655Z" fill="#B3B3B3"/>
</svg>
