<svg width="48" height="48" viewBox="0 0 48 48" fill="none" xmlns="http://www.w3.org/2000/svg">
<path d="M24 17.01C20.13 17.01 17.01 20.16 17.01 24C17.01 27.84 20.16 30.99 24 30.99C27.84 30.99 30.99 27.84 30.99 24C30.99 20.16 27.84 17.01 24 17.01ZM45 24C45 21.09 45 18.24 44.85 15.33C44.7 11.97 43.92 8.97 41.46 6.54C39 4.08 36.03 3.3 32.67 3.15C29.76 3 26.91 3 24 3C21.09 3 18.24 3 15.33 3.15C11.97 3.3 8.97 4.08 6.54 6.54C4.08 9 3.3 11.97 3.15 15.33C3 18.24 3 21.09 3 24C3 26.91 3 29.76 3.15 32.67C3.3 36.03 4.08 39.03 6.54 41.46C9 43.92 11.97 44.7 15.33 44.85C18.24 45 21.09 45 24 45C26.91 45 29.76 45 32.67 44.85C36.03 44.7 39.03 43.92 41.46 41.46C43.92 39 44.7 36.03 44.85 32.67C45.03 29.79 45 26.91 45 24ZM24 34.77C18.03 34.77 13.23 29.97 13.23 24C13.23 18.03 18.03 13.23 24 13.23C29.97 13.23 34.77 18.03 34.77 24C34.77 29.97 29.97 34.77 24 34.77ZM35.22 15.3C33.84 15.3 32.7 14.19 32.7 12.78C32.7 11.37 33.81 10.26 35.22 10.26C36.63 10.26 37.74 11.37 37.74 12.78C37.7476 13.1086 37.6876 13.4353 37.5638 13.7397C37.4399 14.0442 37.2548 14.32 37.02 14.55C36.79 14.7848 36.5142 14.9699 36.2097 15.0937C35.9053 15.2176 35.5786 15.2776 35.25 15.27L35.22 15.3Z" fill="#B3B3B3"/>
</svg>
