<svg width="52" height="52" viewBox="0 0 52 52" fill="none" xmlns="http://www.w3.org/2000/svg">
<path d="M34.9966 23.7693C32.2424 20.2915 29.1446 17.1006 25.7505 14.2456C23.564 12.4843 21.5146 10.5587 19.6201 8.48568C18.6885 7.39782 17.8971 6.19722 17.2646 4.91225C16.9683 4.29463 15.9588 2.57348 16.1754 1.8553C13.4981 10.6503 11.73 21.0734 17.0694 29.3443C22.4087 37.6153 32.6756 40.637 40.6326 45.6636C40.6942 45.6907 40.7611 45.7035 40.8283 45.7013C40.8954 45.6991 40.9612 45.6819 41.0208 45.6509C41.0804 45.6199 41.1322 45.576 41.1725 45.5223C41.2129 45.4685 41.2407 45.4064 41.2539 45.3405C42.5622 37.588 39.6855 29.9012 34.9966 23.7693Z" fill="#4CAF50"/>
<path d="M28.874 19.7666C28.8047 19.6647 28.6125 19.7458 28.6879 19.8931C30.2555 23.0715 31.8457 26.247 33.2437 29.5035C34.2777 31.9154 35.0295 34.4944 36.095 36.9345C35.0018 35.6178 33.8355 34.3755 32.6354 33.1562C32.0459 32.6061 31.5028 32.0082 31.0118 31.3686C30.5729 30.6818 30.1783 29.9677 29.8302 29.2308C29.2962 28.1543 28.7875 27.0606 28.245 25.9899C26.138 21.7634 23.8757 17.6178 21.6049 13.4779C21.5472 13.393 21.3861 13.4653 21.4442 13.5872C24.0711 19.1603 26.7611 24.7898 29.7383 30.1869C28.914 29.3202 28.115 28.4362 27.3726 27.5262C22.9479 21.9661 19.5316 15.6734 17.2796 8.93555C17.2219 8.85069 17.103 8.89424 17.1527 9.02182C18.846 15.3659 21.7837 21.3125 25.7942 26.5145C27.9346 29.3531 30.4178 31.8593 32.7742 34.4517C25.1626 30.3261 19.3471 23.5175 16.4595 15.3508C16.4488 15.3351 16.4323 15.3242 16.4136 15.3206C16.3949 15.317 16.3756 15.321 16.3599 15.3317C16.3442 15.3423 16.3334 15.3588 16.3299 15.3775C16.3263 15.3962 16.3304 15.4156 16.3411 15.4313C17.6877 19.7915 19.9194 23.8287 22.896 27.2892C25.8726 30.7497 29.5298 33.5588 33.6378 35.5399C33.6745 35.5601 33.7157 35.5705 33.7574 35.5703C34.7768 36.7091 35.7383 37.8985 36.6383 39.1341C30.265 36.6013 24.4688 32.7987 19.602 27.9575C19.5674 27.9066 19.5174 28.015 19.5259 28.0093C24.356 33.3379 30.4124 37.405 37.1657 39.8551C37.9039 40.9305 38.566 42.0561 39.147 43.2238C39.3182 43.5666 39.8788 43.4088 39.7299 43.026C39.0519 41.2909 38.137 39.6577 37.0113 38.173C36.4066 35.01 34.8275 31.8146 33.5211 28.8929C32.1747 25.7521 30.6222 22.7033 28.874 19.7666Z" fill="#EED8A4"/>
</svg>
