<svg width="44" height="44" viewBox="0 0 44 44" fill="none" xmlns="http://www.w3.org/2000/svg">
<path d="M38.8385 21.5337C38.8385 25.9298 37.0922 30.1457 33.9837 33.2542C30.8752 36.3627 26.6592 38.109 22.2632 38.109V40.7969C32.9019 40.7969 41.5264 32.1724 41.5264 21.5337H38.8385ZM22.2632 38.109C17.8672 38.109 13.6512 36.3627 10.5427 33.2542C7.43421 30.1457 5.68789 25.9298 5.68789 21.5337H3C3 32.1724 11.6245 40.7969 22.2632 40.7969V38.109ZM5.68789 21.5337C5.68789 17.1377 7.43421 12.9217 10.5427 9.81319C13.6512 6.70472 17.8672 4.9584 22.2632 4.9584V2.27051C11.6245 2.27051 3 10.895 3 21.5337H5.68789ZM28.5349 25.5655C25.8023 25.5655 23.1815 24.48 21.2492 22.5477C19.3169 20.6154 18.2314 17.9946 18.2314 15.262H15.5435C15.5435 18.7075 16.9122 22.0119 19.3486 24.4483C21.785 26.8847 25.0894 28.2534 28.5349 28.2534V25.5655ZM37.3602 20.5822C36.4433 22.1029 35.1489 23.3608 33.6026 24.234C32.0564 25.1071 30.3107 25.5658 28.5349 25.5655V28.2534C30.7737 28.2541 32.9747 27.6762 34.9244 26.5757C36.8741 25.4753 38.5063 23.8897 39.6628 21.9727L37.3602 20.5822ZM18.2314 15.262C18.2311 13.4862 18.6898 11.7405 19.5629 10.1943C20.4361 8.64801 21.694 7.35364 23.2147 6.43673L21.8242 4.1359C19.9074 5.2922 18.322 6.92415 17.2216 8.8735C16.1212 10.8229 15.5431 13.0235 15.5435 15.262H18.2314ZM22.2632 4.9584C22.1731 4.95666 22.0843 4.93708 22.0019 4.90079C21.9195 4.86449 21.845 4.8122 21.783 4.74695C21.7074 4.67107 21.6562 4.57435 21.636 4.4692C21.6289 4.41365 21.6324 4.25238 21.8242 4.1359L23.2147 6.43673C24.116 5.89199 24.4063 4.89389 24.3006 4.10902C24.1895 3.2937 23.548 2.27051 22.2632 2.27051V4.9584ZM39.6628 21.9727C39.5445 22.1645 39.3833 22.168 39.3277 22.1609C39.2226 22.1407 39.1258 22.0895 39.05 22.0139C38.9847 21.9519 38.9324 21.8774 38.8961 21.795C38.8598 21.7126 38.8402 21.6238 38.8385 21.5337H41.5264C41.5264 20.2489 40.5032 19.6074 39.6879 19.4963C38.903 19.3906 37.9049 19.6809 37.3602 20.5822L39.6628 21.9727Z" fill="#B3B3B3"/>
</svg>
