<svg width="43" height="43" viewBox="0 0 43 43" fill="none" xmlns="http://www.w3.org/2000/svg">
<path d="M27.5508 12.4314C26.3459 12.4316 25.1474 12.6064 23.9927 12.9505C23.4978 12.0914 22.8656 11.3191 22.1213 10.6641L23.8886 8.14422C23.9646 8.03579 24.0185 7.91345 24.0472 7.78419C24.0759 7.65493 24.0789 7.52128 24.0559 7.39086C24.033 7.26045 23.9846 7.13583 23.9135 7.02412C23.8424 6.91241 23.75 6.8158 23.6416 6.7398C23.5332 6.6638 23.4108 6.6099 23.2816 6.58118C23.1523 6.55246 23.0187 6.54948 22.8883 6.57241C22.7578 6.59534 22.6332 6.64373 22.5215 6.71483C22.4098 6.78592 22.3132 6.87832 22.2372 6.98675L20.4699 9.50664C19.138 8.77957 17.6447 8.39889 16.1273 8.39957C15.9341 8.39957 15.7443 8.39957 15.5544 8.41973L15.0185 5.3841C14.9994 5.2503 14.9535 5.12173 14.8836 5.00603C14.8138 4.89032 14.7214 4.78985 14.6119 4.71058C14.5024 4.63132 14.3781 4.57488 14.2464 4.54462C14.1147 4.51437 13.9782 4.51091 13.8451 4.53447C13.712 4.55802 13.585 4.6081 13.4717 4.68172C13.3583 4.75535 13.261 4.85102 13.1853 4.96304C13.1097 5.07506 13.0574 5.20115 13.0315 5.3338C13.0056 5.46645 13.0066 5.60296 13.0345 5.7352L13.5687 8.76915C11.9277 9.25373 10.4572 10.1925 9.32692 11.4772L6.79863 9.70655C6.6902 9.63055 6.56786 9.57666 6.4386 9.54793C6.30934 9.51921 6.17569 9.51623 6.04527 9.53917C5.91486 9.5621 5.79024 9.61049 5.67853 9.68158C5.56682 9.75268 5.47021 9.84507 5.39421 9.95351C5.24072 10.1725 5.1805 10.4435 5.22682 10.7069C5.27313 10.9702 5.42217 11.2044 5.64116 11.3579L8.16105 13.1252C7.43267 14.4577 7.05245 15.9526 7.05566 17.4712C7.05566 17.661 7.05566 17.8509 7.07582 18.0407L4.04018 18.5749C3.79223 18.6183 3.5695 18.7529 3.41579 18.9523C3.26209 19.1516 3.18853 19.4013 3.20959 19.6521C3.23065 19.9029 3.34481 20.1368 3.5296 20.3077C3.7144 20.4787 3.95646 20.5742 4.20818 20.5757C4.26729 20.5755 4.32629 20.5705 4.38457 20.5606L7.42524 20.0247C7.68829 20.9214 8.08958 21.7716 8.61463 22.5446C7.31994 23.6656 6.39883 25.1555 5.97476 26.8147C5.55068 28.474 5.64391 30.2232 6.24194 31.8279C6.83998 33.4327 7.91424 34.8163 9.32075 35.7933C10.7273 36.7703 12.3988 37.2941 14.1114 37.2944H27.5508C30.8478 37.2944 34.0098 35.9846 36.3412 33.6533C38.6725 31.3219 39.9823 28.1599 39.9823 24.8629C39.9823 21.5658 38.6725 18.4039 36.3412 16.0725C34.0098 13.7411 30.8478 12.4314 27.5508 12.4314ZM9.07157 17.4712C9.07106 15.9426 9.56699 14.4552 10.4847 13.2327C11.4025 12.0103 12.6924 11.1189 14.1604 10.6928C15.6284 10.2667 17.1951 10.3289 18.6248 10.8699C20.0544 11.411 21.2697 12.4017 22.0877 13.693C19.1741 15.1149 16.9281 17.6145 15.8249 20.6631C15.2609 20.549 14.6868 20.4927 14.1114 20.4951C12.7794 20.4941 11.4666 20.812 10.2828 21.4224C9.49375 20.2557 9.07191 18.8796 9.07157 17.4712ZM27.5508 35.2784H14.1114C13.2231 35.2778 12.3447 35.0917 11.5324 34.7322C10.7202 34.3727 9.99187 33.8476 9.39411 33.1906C8.79636 32.5335 8.3423 31.7589 8.06099 30.9164C7.77969 30.0738 7.67731 29.1818 7.76042 28.2974C7.84353 27.4131 8.11029 26.5558 8.54365 25.7804C8.977 25.005 9.56741 24.3285 10.2771 23.7943C10.9868 23.2601 11.8002 22.8799 12.6652 22.6781C13.5303 22.4762 14.4279 22.457 15.3008 22.6219C15.2108 23.1218 15.1508 23.6267 15.121 24.1338C15.1054 24.4011 15.1966 24.6637 15.3747 24.8637C15.5527 25.0638 15.8028 25.185 16.0702 25.2005C16.3375 25.2161 16.6001 25.1249 16.8001 24.9469C17.0002 24.7689 17.1213 24.5187 17.1369 24.2514C17.1793 23.5564 17.2919 22.8675 17.4729 22.1952C17.4729 22.17 17.4863 22.1464 17.4914 22.1229C18.0006 20.2461 19.0245 18.5492 20.4475 17.2238C21.8705 15.8984 23.6358 14.9974 25.544 14.6226C27.4521 14.2478 29.4271 14.4142 31.2457 15.1029C33.0643 15.7916 34.654 16.9753 35.8352 18.52C37.0164 20.0648 37.742 21.9091 37.9301 23.8446C38.1181 25.7802 37.7611 27.7297 36.8993 29.4729C36.0376 31.2162 34.7054 32.6837 33.0534 33.7096C31.4014 34.7355 29.4954 35.2789 27.5508 35.2784Z" fill="#B3B3B3"/>
</svg>
