<svg width="48" height="48" viewBox="0 0 48 48" fill="none" xmlns="http://www.w3.org/2000/svg">
<path d="M24 44C35.046 44 44 35.046 44 24C44 12.954 35.046 4 24 4C12.954 4 4 12.954 4 24C4 32.012 8.712 38.924 15.516 42.116L20.096 20.584C20.2133 20.0723 20.5271 19.6273 20.9697 19.345C21.4122 19.0626 21.948 18.9656 22.4615 19.0748C22.9749 19.184 23.4248 19.4907 23.7142 19.9287C24.0035 20.3667 24.109 20.9009 24.008 21.416C23.46 24 22.98 25 23.002 26.2C23.036 28.08 23.548 29.084 24.044 29.604C24.55 30.134 25.28 30.42 26.234 30.404C27.208 30.384 28.31 30.042 29.286 29.426C31.184 28.234 32 26.19 32 24C31.9987 22.8115 31.7326 21.6383 31.221 20.5655C30.7095 19.4928 29.9653 18.5475 29.0427 17.7983C28.1201 17.0492 27.0421 16.515 25.8872 16.2347C24.7322 15.9543 23.5293 15.9348 22.3659 16.1776C21.2025 16.4203 20.1078 16.9193 19.1613 17.6381C18.2149 18.3569 17.4405 19.2776 16.8944 20.3332C16.3484 21.3888 16.0444 22.5528 16.0045 23.7406C15.9646 24.9284 16.1899 26.1102 16.664 27.2C16.8573 27.6825 16.8551 28.2213 16.658 28.7023C16.4608 29.1832 16.0841 29.5685 15.6078 29.7766C15.1314 29.9846 14.5928 29.999 14.106 29.8167C13.6192 29.6344 13.2226 29.2697 13 28.8C12.2038 26.9739 11.8748 24.9783 12.0427 22.9932C12.2105 21.0082 12.8699 19.0961 13.9613 17.4296C15.0528 15.7631 16.542 14.3945 18.2945 13.4473C20.0471 12.5001 22.0079 12.0042 24 12.0042C25.9921 12.0042 27.9529 12.5001 29.7055 13.4473C31.458 14.3945 32.9472 15.7631 34.0387 17.4296C35.1301 19.0961 35.7895 21.0082 35.9573 22.9932C36.1252 24.9783 35.7962 26.9739 35 28.8C34.264 30.496 32.92 31.868 31.416 32.814C29.906 33.764 28.102 34.372 26.306 34.404C24.668 34.434 22.962 33.98 21.588 32.788L19.32 43.452C20.82 43.812 22.388 44.002 23.998 44.002L24 44Z" fill="#B3B3B3"/>
</svg>
