<svg width="35" height="35" viewBox="0 0 35 35" fill="none" xmlns="http://www.w3.org/2000/svg">
<path d="M31.7188 5.50293H23.8984C22.2202 5.50293 20.5796 5.98486 19.168 6.89404L17.5 7.96387L15.832 6.89404C14.4218 5.98504 12.7794 5.50203 11.1016 5.50293H3.28125C2.67627 5.50293 2.1875 5.9917 2.1875 6.59668V26.0107C2.1875 26.6157 2.67627 27.1045 3.28125 27.1045H11.1016C12.7798 27.1045 14.4204 27.5864 15.832 28.4956L17.3496 29.4731C17.394 29.5005 17.4453 29.5176 17.4966 29.5176C17.5479 29.5176 17.5991 29.5039 17.6436 29.4731L19.1611 28.4956C20.5762 27.5864 22.2202 27.1045 23.8984 27.1045H31.7188C32.3237 27.1045 32.8125 26.6157 32.8125 26.0107V6.59668C32.8125 5.9917 32.3237 5.50293 31.7188 5.50293ZM11.1016 24.6436H4.64844V7.96387H11.1016C12.3115 7.96387 13.4873 8.30908 14.5024 8.96192L16.1704 10.0317L16.4062 10.1855V25.9766C14.7793 25.1016 12.9609 24.6436 11.1016 24.6436ZM30.3516 24.6436H23.8984C22.0391 24.6436 20.2207 25.1016 18.5938 25.9766V10.1855L18.8296 10.0317L20.4976 8.96192C21.5127 8.30908 22.6885 7.96387 23.8984 7.96387H30.3516V24.6436ZM13.5659 12.3389H7.21533C7.08203 12.3389 6.97266 12.4551 6.97266 12.5952V14.1333C6.97266 14.2734 7.08203 14.3896 7.21533 14.3896H13.5625C13.6958 14.3896 13.8052 14.2734 13.8052 14.1333V12.5952C13.8086 12.4551 13.6992 12.3389 13.5659 12.3389ZM21.1914 12.5952V14.1333C21.1914 14.2734 21.3008 14.3896 21.4341 14.3896H27.7812C27.9146 14.3896 28.0239 14.2734 28.0239 14.1333V12.5952C28.0239 12.4551 27.9146 12.3389 27.7812 12.3389H21.4341C21.3008 12.3389 21.1914 12.4551 21.1914 12.5952ZM13.5659 17.124H7.21533C7.08203 17.124 6.97266 17.2402 6.97266 17.3804V18.9185C6.97266 19.0586 7.08203 19.1748 7.21533 19.1748H13.5625C13.6958 19.1748 13.8052 19.0586 13.8052 18.9185V17.3804C13.8086 17.2402 13.6992 17.124 13.5659 17.124ZM27.7847 17.124H21.4341C21.3008 17.124 21.1914 17.2402 21.1914 17.3804V18.9185C21.1914 19.0586 21.3008 19.1748 21.4341 19.1748H27.7812C27.9146 19.1748 28.0239 19.0586 28.0239 18.9185V17.3804C28.0273 17.2402 27.918 17.124 27.7847 17.124Z" fill="white"/>
</svg>
