<svg width="24" height="24" viewBox="0 0 24 24" fill="none" xmlns="http://www.w3.org/2000/svg">
<path d="M11.052 0.876834C11.3463 -0.02867 12.6273 -0.0286721 12.9215 0.876832L15.0761 7.50779C15.2076 7.91274 15.585 8.18692 16.0108 8.18692H22.983C23.9351 8.18692 24.331 9.40527 23.5607 9.9649L17.9201 14.0631C17.5756 14.3133 17.4315 14.757 17.563 15.1619L19.7176 21.7929C20.0118 22.6984 18.9754 23.4514 18.2051 22.8917L12.5645 18.7936C12.22 18.5433 11.7536 18.5433 11.4091 18.7936L5.76846 22.8917C4.99819 23.4514 3.9618 22.6984 4.25602 21.7929L6.41055 15.1619C6.54212 14.757 6.39798 14.3133 6.05351 14.0631L0.412878 9.9649C-0.357389 9.40527 0.038474 8.18692 0.990577 8.18692H7.96278C8.38857 8.18692 8.76594 7.91274 8.89752 7.50779L11.052 0.876834Z" fill="#4CAF50"/>
</svg>
