<svg width="48" height="48" viewBox="0 0 48 48" fill="none" xmlns="http://www.w3.org/2000/svg">
<path fill-rule="evenodd" clip-rule="evenodd" d="M32 43.5C35.05 43.5 37.9751 42.2884 40.1317 40.1317C42.2884 37.9751 43.5 35.05 43.5 32V16C43.5 12.95 42.2884 10.0249 40.1317 7.86827C37.9751 5.7116 35.05 4.5 32 4.5H16C12.95 4.5 10.0249 5.7116 7.86827 7.86827C5.7116 10.0249 4.5 12.95 4.5 16V32C4.5 35.05 5.7116 37.9751 7.86827 40.1317C10.0249 42.2884 12.95 43.5 16 43.5H32ZM27.422 11.526C27.3088 11.1889 27.0796 10.9029 26.7751 10.7192C26.4707 10.5354 26.1108 10.4658 25.7598 10.5227C25.4088 10.5797 25.0894 10.7595 24.8587 11.0301C24.6279 11.3006 24.5008 11.6444 24.5 12V30C24.5 30.89 24.2361 31.76 23.7416 32.5001C23.2471 33.2401 22.5443 33.8169 21.7221 34.1575C20.8998 34.4981 19.995 34.5872 19.1221 34.4135C18.2492 34.2399 17.4474 33.8113 16.818 33.182C16.1887 32.5526 15.7601 31.7508 15.5865 30.8779C15.4128 30.005 15.5019 29.1002 15.8425 28.2779C16.1831 27.4557 16.7599 26.7529 17.4999 26.2584C18.24 25.7639 19.11 25.5 20 25.5C20.3978 25.5 20.7794 25.342 21.0607 25.0607C21.342 24.7794 21.5 24.3978 21.5 24C21.5 23.6022 21.342 23.2206 21.0607 22.9393C20.7794 22.658 20.3978 22.5 20 22.5C18.5166 22.5 17.0666 22.9399 15.8332 23.764C14.5999 24.5881 13.6386 25.7594 13.0709 27.1299C12.5032 28.5003 12.3547 30.0083 12.6441 31.4632C12.9335 32.918 13.6478 34.2544 14.6967 35.3033C15.7456 36.3522 17.082 37.0665 18.5368 37.3559C19.9917 37.6453 21.4997 37.4968 22.8701 36.9291C24.2406 36.3614 25.4119 35.4001 26.236 34.1668C27.0601 32.9334 27.5 31.4834 27.5 30V16.916C29.034 18.34 31.194 19.5 34 19.5C34.3978 19.5 34.7794 19.342 35.0607 19.0607C35.342 18.7794 35.5 18.3978 35.5 18C35.5 17.6022 35.342 17.2206 35.0607 16.9393C34.7794 16.658 34.3978 16.5 34 16.5C32.056 16.5 30.578 15.7 29.482 14.662C28.362 13.598 27.686 12.316 27.422 11.526Z" fill="#B3B3B3"/>
</svg>
