<svg width="48" height="48" viewBox="0 0 48 48" fill="none" xmlns="http://www.w3.org/2000/svg">
<g clip-path="url(#clip0_109_8)">
<path d="M33 21C33 25.98 28.98 30 24 30C19.02 30 15 25.98 15 21C15 16.02 19.02 12 24 12C28.98 12 33 16.02 33 21Z" fill="#B3B3B3"/>
<path fill-rule="evenodd" clip-rule="evenodd" d="M48 24C48 37.26 37.26 48 24 48C10.74 48 0 37.26 0 24C0 10.74 10.74 0 24 0C37.26 0 48 10.74 48 24ZM12 41.25C12.48 40.452 17.13 33 23.97 33C30.78 33 35.46 40.47 35.94 41.25C38.7296 39.321 41.0089 36.7432 42.5819 33.7384C44.1548 30.7335 44.9744 27.3916 44.97 24C44.97 12.39 35.58 3 23.97 3C12.36 3 2.97 12.39 2.97 24C2.97 31.14 6.54 37.47 12 41.25Z" fill="#B3B3B3"/>
</g>
<defs>
<clipPath id="clip0_109_8">
<rect width="48" height="48" fill="white"/>
</clipPath>
</defs>
</svg>
